<svg id="logo.svg" xmlns="http://www.w3.org/2000/svg" width="100" height="48" viewBox="0 0 450.16 206.97"><defs><style>.cls-1{fill:#fcc813;}</style></defs><g id="Layer_2" data-name="Layer 2"><g id="CONSTRUCTSED_BY_FREEPIK" data-name="CONSTRUCTSED BY FREEPIK"><path class="cls-1" d="M449.64,0H1.59V166H449.64Zm-8.53,157.41h-431V8.53h431Z"></path><path class="cls-1" d="M61.13,94l49.5,40.21h16.61L79.3,95.27h8c21.25,0,32.37-15.92,32.37-31.64S108.5,32,87.25,32H50.59V134.22H61.13Zm0-51.34H87.25c15,0,21.83,10.9,21.83,21a21.29,21.29,0,0,1-5.4,14.5c-3.92,4.27-9.6,6.53-16.43,6.53H61.13Z"></path><path class="cls-1" d="M178.38,135.29c18,0,37.06-10.74,37.06-30.63V32.13H204.76v72.39c0,13-13.59,20.09-26.38,20.09s-26.38-7-26.38-20V32.13H141.32v72.39C141.32,124.5,160.42,135.29,178.38,135.29Z"></path><polygon class="cls-1" points="300.41 123.54 250.08 123.54 250.08 32.13 239.41 32.13 239.41 134.22 300.41 134.22 300.41 123.54"></polygon><polygon class="cls-1" points="337.48 100.95 357.57 53.84 375.97 96.77 391.23 134.22 402.65 134.22 361.67 30.66 353.59 30.66 312.6 134.22 324.03 134.22 337.48 100.95"></polygon><path class="cls-1" d="M7.53,187.2,0,206.54H2.63l2.17-5.82H13l2.12,5.82h2.85L10.37,187.2ZM5.61,198.55l3.27-9h.06l3.22,9Z"></path><path class="cls-1" d="M38.71,204.59c-.07-.43-.12-.78-.14-1s-.06-.68-.09-1.24l-.06-1.11a6.7,6.7,0,0,0-.79-2.69,3,3,0,0,0-2.11-1.29v-.05a4.19,4.19,0,0,0,2.53-1.76,5.78,5.78,0,0,0,.83-3.15,4.7,4.7,0,0,0-1.56-3.71A6.39,6.39,0,0,0,33,187.2H23.89v19.34h2.58v-8.26h6.28a3.85,3.85,0,0,1,1.5.25,2,2,0,0,1,1,.82,4.21,4.21,0,0,1,.49,1.07,11.21,11.21,0,0,1,.29,1.35,12.16,12.16,0,0,1,.17,1.83c0,.73.07,1.35.13,1.85a1.89,1.89,0,0,0,.4,1.09h2.87a4.18,4.18,0,0,1-.84-1.95Zm-3.62-9.22a6.22,6.22,0,0,1-3.26.74H26.47v-6.74h6.39a3.48,3.48,0,0,1,2.59.87,3.35,3.35,0,0,1,.85,2.43A2.91,2.91,0,0,1,35.09,195.37Z"></path><path class="cls-1" d="M58.66,203.27a5.17,5.17,0,0,1-3.94,1.56,5.7,5.7,0,0,1-4.94-2.27,9.69,9.69,0,0,1-1.64-5.83,9.16,9.16,0,0,1,1.65-5.56,5.69,5.69,0,0,1,4.91-2.27A6,6,0,0,1,58.25,190,4.79,4.79,0,0,1,60.11,193h2.58a6.62,6.62,0,0,0-2.62-4.64,8.66,8.66,0,0,0-5.35-1.64A8.33,8.33,0,0,0,48,189.62a12.39,12.39,0,0,0-.12,14.55,8.09,8.09,0,0,0,6.64,2.8,8.2,8.2,0,0,0,5.83-2,8.71,8.71,0,0,0,2.53-5.71H60.3A6.13,6.13,0,0,1,58.66,203.27Z"></path><polygon class="cls-1" points="82.9 195.52 72.71 195.52 72.71 187.2 70.14 187.2 70.14 206.54 72.71 206.54 72.71 197.68 82.9 197.68 82.9 206.54 85.47 206.54 85.47 187.2 82.9 187.2 82.9 195.52"></polygon><rect class="cls-1" x="93.87" y="187.2" width="2.57" height="19.34"></rect><polygon class="cls-1" points="102.78 189.37 109.23 189.37 109.23 206.54 111.8 206.54 111.8 189.37 118.25 189.37 118.25 187.2 102.78 187.2 102.78 189.37"></polygon><polygon class="cls-1" points="127.03 197.68 137.08 197.68 137.08 195.52 127.03 195.52 127.03 189.37 137.81 189.37 137.81 187.2 124.45 187.2 124.45 206.54 137.89 206.54 137.89 204.37 127.03 204.37 127.03 197.68"></polygon><path class="cls-1" d="M157.22,203.27a5.18,5.18,0,0,1-3.94,1.56,5.71,5.71,0,0,1-4.95-2.27,9.76,9.76,0,0,1-1.64-5.83,9.16,9.16,0,0,1,1.65-5.56,5.7,5.7,0,0,1,4.91-2.27A6,6,0,0,1,156.8,190a4.8,4.8,0,0,1,1.87,3.06h2.57a6.61,6.61,0,0,0-2.61-4.64,8.68,8.68,0,0,0-5.35-1.64,8.35,8.35,0,0,0-6.74,2.88,12.39,12.39,0,0,0-.12,14.55,8.1,8.1,0,0,0,6.64,2.8,8.22,8.22,0,0,0,5.84-2,8.71,8.71,0,0,0,2.53-5.71h-2.57A6.23,6.23,0,0,1,157.22,203.27Z"></path><polygon class="cls-1" points="166.64 189.37 173.08 189.37 173.08 206.54 175.65 206.54 175.65 189.37 182.1 189.37 182.1 187.2 166.64 187.2 166.64 189.37"></polygon><path class="cls-1" d="M200.3,196.92a12.27,12.27,0,0,0-2.43-.93c-.89-.25-1.76-.45-2.64-.62s-1.68-.38-2.41-.6a4.64,4.64,0,0,1-1.78-1,2.08,2.08,0,0,1-.67-1.6,2.74,2.74,0,0,1,1.23-2.53,5.7,5.7,0,0,1,3.1-.78q4.37,0,4.8,4h2.43a5.77,5.77,0,0,0-2-4.59,8,8,0,0,0-5.08-1.53,8.37,8.37,0,0,0-5,1.45,4.84,4.84,0,0,0-2.06,4.21,4.27,4.27,0,0,0,.68,2.44,4.35,4.35,0,0,0,1.77,1.52,15.36,15.36,0,0,0,2.43.85c.89.22,1.76.43,2.64.61a20,20,0,0,1,2.41.64,4.36,4.36,0,0,1,1.78,1.06,2.5,2.5,0,0,1,.67,1.79,2.86,2.86,0,0,1-1.42,2.71,6.94,6.94,0,0,1-3.48.81,6.68,6.68,0,0,1-4-1.17,4.05,4.05,0,0,1-1.63-3.49h-2.44a6,6,0,0,0,2.27,5.07,9.13,9.13,0,0,0,5.73,1.73,10.86,10.86,0,0,0,2.68-.32,9,9,0,0,0,2.41-1,4.91,4.91,0,0,0,1.79-1.8,5.11,5.11,0,0,0,.68-2.64,4.94,4.94,0,0,0-.68-2.64A4.5,4.5,0,0,0,200.3,196.92Z"></path><path class="cls-1" d="M245.26,203.27a5.17,5.17,0,0,1-3.94,1.56,5.7,5.7,0,0,1-4.94-2.27,9.69,9.69,0,0,1-1.64-5.83,9.16,9.16,0,0,1,1.65-5.56,5.68,5.68,0,0,1,4.9-2.27,6,6,0,0,1,3.56,1.06,4.79,4.79,0,0,1,1.86,3.06h2.57a6.57,6.57,0,0,0-2.61-4.64,8.66,8.66,0,0,0-5.35-1.64,8.33,8.33,0,0,0-6.73,2.88,12.39,12.39,0,0,0-.12,14.55,8.09,8.09,0,0,0,6.64,2.8,8.2,8.2,0,0,0,5.83-2,8.71,8.71,0,0,0,2.53-5.71H246.9A6.13,6.13,0,0,1,245.26,203.27Z"></path><path class="cls-1" d="M270,188.19a9.73,9.73,0,0,0-10.22,0,8.54,8.54,0,0,0-3.15,3.71,12.64,12.64,0,0,0-.41,8.8,10.33,10.33,0,0,0,1.72,3.21,7.88,7.88,0,0,0,2.93,2.24,10.26,10.26,0,0,0,8,0,7.76,7.76,0,0,0,2.92-2.24,10.35,10.35,0,0,0,1.73-3.21,12.8,12.8,0,0,0-.41-8.8A8.67,8.67,0,0,0,270,188.19Zm.92,12.48a6.84,6.84,0,0,1-2.22,3,6.65,6.65,0,0,1-7.62,0,6.76,6.76,0,0,1-2.22-3,11.14,11.14,0,0,1,0-7.61,6.73,6.73,0,0,1,2.22-2.95,6.6,6.6,0,0,1,7.62,0,6.81,6.81,0,0,1,2.22,2.95,11.3,11.3,0,0,1,0,7.61Z"></path><polygon class="cls-1" points="294.34 202.88 294.28 202.88 284.1 187.2 281.36 187.2 281.36 206.54 283.8 206.54 283.8 191.02 283.86 191.02 293.96 206.54 296.78 206.54 296.78 187.2 294.34 187.2 294.34 202.88"></polygon><path class="cls-1" d="M317,196.92a12.27,12.27,0,0,0-2.43-.93c-.88-.25-1.76-.45-2.64-.62s-1.68-.38-2.41-.6a4.67,4.67,0,0,1-1.77-1,2.06,2.06,0,0,1-.68-1.6,2.74,2.74,0,0,1,1.23-2.53,5.7,5.7,0,0,1,3.1-.78q4.37,0,4.8,4h2.44a5.8,5.8,0,0,0-2.05-4.59,8,8,0,0,0-5.08-1.53,8.37,8.37,0,0,0-5,1.45,4.83,4.83,0,0,0-2.05,4.21,4.27,4.27,0,0,0,.67,2.44,4.31,4.31,0,0,0,1.78,1.52,15.23,15.23,0,0,0,2.42.85c.89.22,1.77.43,2.64.61a20.18,20.18,0,0,1,2.42.64,4.39,4.39,0,0,1,1.77,1.06,2.51,2.51,0,0,1,.68,1.79,2.87,2.87,0,0,1-1.43,2.71,6.94,6.94,0,0,1-3.48.81,6.7,6.7,0,0,1-4-1.17,4,4,0,0,1-1.62-3.49H303.9a6,6,0,0,0,2.26,5.07,9.13,9.13,0,0,0,5.73,1.73,10.86,10.86,0,0,0,2.68-.32,9,9,0,0,0,2.41-1,4.83,4.83,0,0,0,1.79-1.8,5.11,5.11,0,0,0,.68-2.64,4.94,4.94,0,0,0-.68-2.64A4.5,4.5,0,0,0,317,196.92Z"></path><polygon class="cls-1" points="324.57 189.37 331.02 189.37 331.02 206.54 333.59 206.54 333.59 189.37 340.04 189.37 340.04 187.2 324.57 187.2 324.57 189.37"></polygon><path class="cls-1" d="M361.06,204.59c-.07-.43-.12-.78-.15-1s-.05-.68-.08-1.24-.05-.93-.07-1.11a6.55,6.55,0,0,0-.78-2.69,3,3,0,0,0-2.12-1.29v-.05a4.18,4.18,0,0,0,2.54-1.76,5.78,5.78,0,0,0,.83-3.15,4.67,4.67,0,0,0-1.57-3.71,6.36,6.36,0,0,0-4.31-1.35h-9.11v19.34h2.58v-8.26h6.28a3.85,3.85,0,0,1,1.5.25,2.06,2.06,0,0,1,.95.82,4.21,4.21,0,0,1,.49,1.07,9.74,9.74,0,0,1,.28,1.35,13.44,13.44,0,0,1,.18,1.83c0,.73.07,1.35.12,1.85a1.83,1.83,0,0,0,.41,1.09h2.87a4.18,4.18,0,0,1-.84-1.95Zm-3.62-9.22a6.22,6.22,0,0,1-3.26.74h-5.36v-6.74h6.39a3.51,3.51,0,0,1,2.59.87,3.39,3.39,0,0,1,.85,2.43A2.91,2.91,0,0,1,357.44,195.37Z"></path><path class="cls-1" d="M381.73,199.55a5.47,5.47,0,0,1-1.28,3.94,5,5,0,0,1-3.76,1.34,5.46,5.46,0,0,1-4-1.34,5.21,5.21,0,0,1-1.39-3.94V187.2h-2.57v12.35q0,7.42,7.93,7.42a7.9,7.9,0,0,0,5.65-1.86,7.29,7.29,0,0,0,2-5.56V187.2h-2.58Z"></path><path class="cls-1" d="M404.64,203.27a5.18,5.18,0,0,1-3.94,1.56,5.71,5.71,0,0,1-4.95-2.27,9.76,9.76,0,0,1-1.64-5.83,9.16,9.16,0,0,1,1.65-5.56,5.7,5.7,0,0,1,4.91-2.27,6,6,0,0,1,3.55,1.06,4.84,4.84,0,0,1,1.87,3.06h2.57a6.61,6.61,0,0,0-2.61-4.64,8.7,8.7,0,0,0-5.35-1.64,8.33,8.33,0,0,0-6.74,2.88,12.39,12.39,0,0,0-.12,14.55,8.09,8.09,0,0,0,6.64,2.8,8.18,8.18,0,0,0,5.83-2,8.72,8.72,0,0,0,2.54-5.71h-2.58A6.17,6.17,0,0,1,404.64,203.27Z"></path><polygon class="cls-1" points="414.05 189.37 420.5 189.37 420.5 206.54 423.07 206.54 423.07 189.37 429.52 189.37 429.52 187.2 414.05 187.2 414.05 189.37"></polygon><path class="cls-1" d="M449.49,198.59a4.46,4.46,0,0,0-1.78-1.67,12,12,0,0,0-2.43-.93c-.88-.25-1.76-.45-2.63-.62s-1.68-.38-2.42-.6a4.67,4.67,0,0,1-1.77-1,2.09,2.09,0,0,1-.68-1.6,2.75,2.75,0,0,1,1.24-2.53,5.68,5.68,0,0,1,3.1-.78q4.35,0,4.79,4h2.44a5.77,5.77,0,0,0-2-4.59,8,8,0,0,0-5.08-1.53,8.37,8.37,0,0,0-5,1.45,4.84,4.84,0,0,0-2.06,4.21,4.19,4.19,0,0,0,.68,2.44,4.35,4.35,0,0,0,1.77,1.52,15.59,15.59,0,0,0,2.42.85c.89.22,1.77.43,2.65.61a20,20,0,0,1,2.41.64,4.32,4.32,0,0,1,1.77,1.06,2.51,2.51,0,0,1,.68,1.79,2.86,2.86,0,0,1-1.42,2.71,7,7,0,0,1-3.49.81,6.67,6.67,0,0,1-4-1.17,4.05,4.05,0,0,1-1.63-3.49h-2.44a6,6,0,0,0,2.27,5.07,9.11,9.11,0,0,0,5.73,1.73,10.73,10.73,0,0,0,2.67-.32,8.91,8.91,0,0,0,2.42-1,4.91,4.91,0,0,0,1.79-1.8,5.11,5.11,0,0,0,.67-2.64A4.93,4.93,0,0,0,449.49,198.59Z"></path><circle class="cls-1" cx="217.22" cy="196.15" r="2.49"></circle></g></g></svg>
